<?xml version="1.0" encoding="UTF-8"?>
<svg id="Layer_2" data-name="Layer 2" xmlns="http://www.w3.org/2000/svg" viewBox="0 0 940.93 194.71">
  <defs>
    <style>
      .cls-1 {
        fill: #f5f7fa;
      }
    </style>
  </defs>
  <g id="Layer_1-2" data-name="Layer 1">
    <g>
      <path class="cls-1" d="M577.56,20.12h37.14q2.96,7.4,3.9,9.85c.11.28.22.57.33.86.23.6.46,1.19.69,1.79.55,1.44,1.11,2.89,1.67,4.33.19.49.38.98.57,1.48,1.18,3.06,2.36,6.11,3.55,9.16,1.89,4.87,3.77,9.74,5.65,14.61,1.64,4.24,3.28,8.49,4.92,12.73,1.89,4.87,3.77,9.74,5.65,14.61,1.64,4.24,3.28,8.49,4.92,12.73,1.89,4.87,3.77,9.74,5.65,14.61,1.64,4.24,3.28,8.49,4.92,12.73,1.77,4.55,3.53,9.11,5.29,13.67,1.78,4.63,3.57,9.25,5.37,13.88.69,1.78,1.38,3.55,2.07,5.33.21.53.41,1.06.62,1.59.63,1.62,1.26,3.24,1.89,4.87.2.51.39,1.01.59,1.52.27.69.54,1.39.81,2.08.08.21.16.41.24.63q.54,1.41.54,1.69c-4.01.03-8.01.05-12.02.07-1.86,0-3.72.02-5.58.03-1.62.01-3.25.02-4.87.02-.86,0-1.72,0-2.57.02q-8.62.08-12.09-3.23c-.17-.16-.33-.31-.5-.47-2.28-2.39-3.1-5.78-4.12-8.84-.14-.43-.29-.85-.43-1.28-.38-1.12-.75-2.24-1.13-3.36-.59-1.78-1.19-3.56-1.79-5.33-.22-.64-.43-1.28-.65-1.93-.88-2.61-1.76-5.22-2.7-7.81-.07-.21-.15-.43-.23-.64-.06-.18-.13-.36-.2-.55q-.14-.47-.14-1.25h-58.8c-.26.94-.51,1.87-.77,2.84-.3.93-.6,1.86-.91,2.78-.09.26-.17.52-.26.79-.28.84-.56,1.68-.84,2.52-.2.59-.39,1.17-.59,1.76-.4,1.19-.8,2.38-1.2,3.57-.46,1.36-.92,2.73-1.37,4.1-.32.96-.64,1.92-.97,2.88-.15.44-.3.89-.44,1.33-1.49,4.46-2.92,8.1-7.08,10.71-1.6.78-3.13,1.32-4.91,1.32-.26,0-.52,0-.79,0-.29,0-.57,0-.87,0h-.92c-1,0-2,0-3,0-.69,0-1.38,0-2.08,0-1.64,0-3.28,0-4.91,0-1.86,0-3.73,0-5.59,0-3.83,0-7.67,0-11.5-.01q1.66-4.73,2.4-6.61c.07-.19.15-.38.22-.57.16-.4.32-.81.48-1.21.45-1.15.9-2.29,1.35-3.44.1-.25.19-.49.29-.75,1.25-3.2,2.48-6.4,3.72-9.6.49-1.27.98-2.53,1.46-3.8.12-.31.24-.62.36-.94,1.17-3.02,2.34-6.04,3.51-9.06,1.77-4.55,3.53-9.11,5.29-13.67,1.77-4.6,3.55-9.2,5.34-13.8.1-.26.2-.52.3-.78.8-2.06,1.6-4.12,2.4-6.18.7-1.81,1.4-3.61,2.1-5.42.1-.26.2-.52.3-.78,1.68-4.34,3.36-8.68,5.03-13.02,1.77-4.6,3.55-9.2,5.34-13.8.1-.26.2-.52.3-.78.8-2.06,1.6-4.12,2.4-6.18.7-1.81,1.4-3.61,2.1-5.42.1-.26.2-.52.3-.78,1.68-4.34,3.36-8.68,5.03-13.02,1.73-4.49,3.46-8.97,5.2-13.46.2-.53.41-1.05.61-1.58.28-.73.57-1.46.85-2.2q.12-.3.24-.62c.95-2.44,1.93-4.86,2.9-7.29ZM595.87,52.87c-.08.27-.15.54-.23.82-1.54,5.45-3.18,10.85-5.1,16.18-.94,2.62-1.85,5.25-2.75,7.88-.07.22-.15.44-.23.67-2.06,6.05-4.08,12.12-6.09,18.19-.65,1.96-1.3,3.92-1.95,5.89-.26.77-.51,1.53-.76,2.3-.93,2.8-1.88,5.59-2.87,8.37-.08.24-.17.47-.25.72-.07.21-.15.42-.22.63q-.19.5-.16,1.03h41.78q-2.41-7.45-4.88-14.88c-.15-.45-.3-.91-.46-1.36-.4-1.18-.8-2.37-1.2-3.55-.42-1.25-.84-2.5-1.26-3.75-1.58-4.69-3.17-9.39-4.76-14.08-.07-.2-.14-.4-.21-.6-.63-1.85-1.25-3.71-1.88-5.56-1.18-3.47-2.35-6.95-3.51-10.43q-.16-.47-.32-.95c-.83-2.5-1.63-5-2.41-7.51h-.26Z"/>
      <path class="cls-1" d="M784.39,20.12c4.12-.02,8.25-.03,12.37-.04,1.92,0,3.83,0,5.75-.02,1.67,0,3.34-.01,5.01-.01.88,0,1.77,0,2.65,0,.99,0,1.98,0,2.97,0,.29,0,.58,0,.88,0,3.58.01,6.25,1.18,8.93,3.5,2.17,2.44,3.06,5.51,4.12,8.54.19.53.38,1.07.57,1.6.41,1.15.82,2.3,1.23,3.45,1.02,2.86,2.05,5.72,3.08,8.57.36,1,.72,2.01,1.09,3.01,1.57,4.36,3.15,8.72,4.74,13.07,1.83,5.03,3.65,10.05,5.46,15.09.06.17.12.33.18.5.3.83.6,1.66.9,2.49.06.16.12.32.18.49.12.33.23.65.35.98,1.06,2.94,2.12,5.88,3.18,8.82.27.74.53,1.47.8,2.21.81,2.23,1.61,4.46,2.42,6.69,2.33,6.43,4.66,12.87,6.89,19.34.06.17.12.34.18.52,1.77,5.11,3.31,10.26,4.72,15.47.15-.56.3-1.13.45-1.69.05-.17.09-.35.14-.53.32-1.19.63-2.37.94-3.56,1.42-5.37,3.1-10.63,4.92-15.88.15-.45.31-.89.46-1.34,1.84-5.32,3.71-10.63,5.63-15.93.07-.19.14-.39.21-.59.07-.2.14-.39.22-.6,1-2.77,1.99-5.54,2.99-8.31,1.79-5,3.59-10.01,5.38-15.01,1.77-4.93,3.54-9.86,5.31-14.79.59-1.65,1.18-3.31,1.78-4.96.58-1.6,1.15-3.2,1.72-4.8.6-1.67,1.2-3.34,1.8-5.01.32-.9.64-1.8.97-2.7,1.17-3.26,2.34-6.52,3.55-9.77.08-.21.16-.43.24-.65.66-1.73,1.48-3.14,2.75-4.51q.23-.25.47-.51c1.91-1.86,4.65-3.13,7.32-3.13.27,0,.54,0,.82,0,.29,0,.59,0,.89,0,.31,0,.62,0,.94,0,.86,0,1.71,0,2.56,0,.89,0,1.79,0,2.68,0,1.69,0,3.38,0,5.08,0,1.92,0,3.85,0,5.78,0,3.96,0,7.92,0,11.88.01-.15.85-.36,1.61-.67,2.41q-.13.33-.26.66c-.1.23-.19.47-.29.71-.1.25-.2.5-.3.76-.33.83-.66,1.67-1,2.5-.23.59-.47,1.18-.7,1.77-.5,1.25-1,2.49-1.49,3.74-.62,1.55-1.24,3.11-1.86,4.66-3.04,7.64-6.11,15.27-9.2,22.89-2.07,5.11-4.12,10.23-6.18,15.34-.12.29-.23.58-.35.87-3.78,9.4-7.54,18.82-11.29,28.24-3.8,9.56-7.63,19.12-11.48,28.66-2.32,5.75-4.63,11.51-6.95,17.27-.6,1.5-1.21,3-1.81,4.5-.46,1.14-.91,2.27-1.37,3.41-.22.55-.44,1.1-.66,1.65-1.1,2.74-2.2,5.48-3.29,8.22-.17.43-.34.86-.52,1.29-.31.79-.62,1.57-.94,2.36-.13.34-.27.68-.41,1.03-.12.29-.23.59-.35.89q-.28.65-.53.91c-.42.02-.85.03-1.27.03-.28,0-.55,0-.84,0-.31,0-.61,0-.93,0h-.97c-.88,0-1.76,0-2.64,0-.92,0-1.83,0-2.75,0-1.74,0-3.48,0-5.21,0-1.98,0-3.96,0-5.93,0-4.07,0-8.14,0-12.21-.01-.82-1.78-1.6-3.56-2.32-5.38-.1-.24-.19-.48-.29-.72-.31-.79-.62-1.57-.93-2.36-.22-.56-.45-1.12-.67-1.69-.48-1.2-.95-2.4-1.43-3.59-1.2-3.02-2.4-6.04-3.6-9.07-.19-.48-.39-.97-.58-1.45-2.18-5.47-4.36-10.94-6.57-16.4-.25-.63-.51-1.25-.76-1.88-.69-1.72-1.38-3.44-2.08-5.15-2.35-5.84-4.71-11.68-7.06-17.52-.11-.29-.23-.58-.35-.87-4.13-10.26-8.22-20.52-12.3-30.8-2.47-6.22-4.96-12.43-7.47-18.63-.1-.25-.2-.5-.31-.76-.1-.25-.21-.5-.31-.76-1.98-4.89-3.94-9.78-5.91-14.67-.48-1.21-.97-2.41-1.45-3.62q-4.64-11.53-6.44-16.09c-.12-.29-.23-.58-.35-.87-.1-.25-.2-.51-.3-.77-.09-.21-.17-.43-.26-.65q-.18-.51-.18-1.02Z"/>
      <path class="cls-1" d="M396.71,19.9c.19,0,.38,0,.58,0,.63,0,1.27,0,1.91,0,.46,0,.92,0,1.38,0,1.27,0,2.53,0,3.8,0,1.37,0,2.73,0,4.1,0,2.68,0,5.35,0,8.03,0,2.17,0,4.35,0,6.52,0q.46,0,.94,0c.63,0,1.26,0,1.89,0,5.9,0,11.8,0,17.69,0,5.4,0,10.79,0,16.19,0,5.54,0,11.08,0,16.62,0,3.11,0,6.22,0,9.33,0,2.65,0,5.29,0,7.94,0,1.35,0,2.7,0,4.05,0,1.24,0,2.47,0,3.71,0,.45,0,.89,0,1.34,0,3.09-.02,6.03.13,8.36,2.42,1.51,1.81,2.08,3.64,2.37,5.93.03.23.06.46.09.7.11.81.21,1.62.32,2.43q.06.47.12.96c.3,2.34.6,4.68.88,7.02.1.76.19,1.53.29,2.29.09.74.18,1.48.28,2.21.04.35.09.7.13,1.05.06.49.12.97.18,1.46.04.28.07.55.11.83q.07.68.07,1.46h-46.94v126.11h-36.36V48.62h-47.19c0-1.43.05-2.73.24-4.13q.04-.29.08-.59c.09-.64.17-1.28.26-1.92.06-.45.12-.9.18-1.34.13-.94.26-1.87.39-2.81.17-1.2.33-2.39.49-3.59.12-.93.25-1.85.38-2.78.06-.44.12-.88.18-1.32q.58-4.38,1.67-6.28c.14-.27.29-.54.44-.82,1.74-2.12,4.28-3.14,6.97-3.14Z"/>
      <path class="cls-1" d="M711.15,20.12c3.65-.02,7.3-.04,10.95-.05,1.69,0,3.39-.01,5.08-.02,1.64-.01,3.28-.02,4.91-.02.62,0,1.25,0,1.87-.01.87,0,1.75,0,2.63,0,.26,0,.51,0,.77-.01,2.97.02,5.38,1.06,7.49,3.14,2.13,2.32,2.74,4.96,2.73,8.04v.76c0,.84,0,1.67,0,2.51,0,.6,0,1.21,0,1.81,0,1.49,0,2.98,0,4.46,0,1.78,0,3.57,0,5.35,0,3.29,0,6.58,0,9.87,0,3.26,0,6.52,0,9.77v3.7c0,7.29,0,14.57-.01,21.86,0,7.08,0,14.16-.01,21.23v.66c0,2.19,0,4.38,0,6.57,0,4.46,0,8.93,0,13.39v.62c0,13.7-.01,27.41-.02,41.11-3.68.02-7.37.04-11.05.05-1.71,0-3.42.01-5.13.02-1.65.01-3.3.02-4.95.02-.63,0-1.26,0-1.89.01-.88,0-1.77,0-2.65,0-.26,0-.52,0-.78.01-2.85-.02-5.28-.95-7.33-2.97-2.81-3.32-2.73-6.94-2.7-11.07,0-.61,0-1.22,0-1.82,0-1.49,0-2.98,0-4.48,0-1.79,0-3.58,0-5.36,0-3.3,0-6.6,0-9.9,0-3.27.01-6.53.01-9.8v-.62c0-1.03,0-2.06,0-3.1,0-7.31,0-14.61.02-21.92.01-7.1.02-14.2.02-21.29v-.66c0-2.2,0-4.4,0-6.59,0-4.48,0-8.95,0-13.43v-.62c.01-13.74.03-27.48.04-41.23Z"/>
      <g>
        <path class="cls-1" d="M317.79,0H37.02l84.58,49.73,187.46,111.65c3.85,2.29,8.8-.38,8.8-4.75V0h-.07Z"/>
        <path class="cls-1" d="M8.74,4.54c-.77-.46-1.58-.71-2.38-.8-.05,0-.1-.01-.15-.02-.04,0-.09,0-.13,0-.09,0-.19,0-.28,0-.02,0-.05,0-.07,0-.09,0-.18,0-.26,0-.07,0-.14,0-.21.02-.02,0-.05,0-.07,0-2.76.27-5.17,2.48-5.17,5.52v149.87h0v7.26l58.55-.38,95.37-.06h126.17l-85.16-50.48L8.74,4.54Z"/>
        <path class="cls-1" d="M220.59,180.52h-125.29c-1.07,0-1.95.81-2.05,1.85h-.01s0,.21,0,.21c0,0,0,0,0,0v12.12h129.41v-12.12c0-1.14-.92-2.06-2.06-2.06Z"/>
      </g>
    </g>
  </g>
</svg>