<?xml version="1.0" encoding="UTF-8"?>
<svg id="Layer_2" data-name="Layer 2" xmlns="http://www.w3.org/2000/svg" width="490" height="101.4" viewBox="0 0 490 101.4">
  <g id="Layer_1-2" data-name="Layer 1">
    <g>
      <path d="M300.77,10.48h19.34q1.54,3.85,2.03,5.13c.06.15.11.29.17.45.12.31.24.62.36.93.29.75.58,1.5.87,2.26.1.26.2.51.3.77.61,1.59,1.23,3.18,1.85,4.77.98,2.53,1.96,5.07,2.94,7.61.85,2.21,1.71,4.42,2.56,6.63.98,2.53,1.96,5.07,2.94,7.61.85,2.21,1.71,4.42,2.56,6.63.98,2.53,1.96,5.07,2.94,7.61.85,2.21,1.71,4.42,2.56,6.63.92,2.37,1.84,4.74,2.75,7.12.93,2.41,1.86,4.82,2.79,7.23.36.93.72,1.85,1.08,2.78.11.28.21.55.32.83.33.84.66,1.69.98,2.53.1.26.2.53.31.79.14.36.28.72.42,1.08.04.11.08.22.13.33q.28.73.28.88c-2.09.02-4.17.03-6.26.03-.97,0-1.94,0-2.91.02-.84,0-1.69.01-2.54.01-.45,0-.89,0-1.34,0q-4.49.04-6.3-1.68c-.09-.08-.17-.16-.26-.25-1.19-1.24-1.61-3.01-2.14-4.6-.08-.22-.15-.44-.22-.67-.2-.58-.39-1.17-.59-1.75-.31-.93-.62-1.85-.93-2.78-.11-.33-.23-.67-.34-1-.46-1.36-.92-2.72-1.4-4.07-.04-.11-.08-.22-.12-.34-.03-.09-.07-.19-.1-.28q-.07-.25-.07-.65h-30.62c-.13.49-.27.98-.4,1.48-.15.48-.31.97-.47,1.45-.04.14-.09.27-.14.41-.15.44-.29.88-.44,1.31-.1.31-.2.61-.31.92-.21.62-.42,1.24-.62,1.86-.24.71-.48,1.42-.71,2.13-.17.5-.33,1-.5,1.5-.08.23-.15.46-.23.69-.77,2.32-1.52,4.22-3.69,5.58-.83.41-1.63.69-2.56.69-.14,0-.27,0-.41,0-.15,0-.3,0-.45,0h-.48c-.52,0-1.04,0-1.56,0-.36,0-.72,0-1.08,0-.85,0-1.71,0-2.56,0-.97,0-1.94,0-2.91,0-2,0-3.99,0-5.99,0q.86-2.46,1.25-3.44c.04-.1.08-.2.12-.3.08-.21.17-.42.25-.63.24-.6.47-1.19.7-1.79.05-.13.1-.26.15-.39.65-1.66,1.29-3.33,1.94-5,.25-.66.51-1.32.76-1.98.06-.16.12-.32.19-.49.61-1.57,1.22-3.15,1.83-4.72.92-2.37,1.84-4.74,2.75-7.12.92-2.4,1.85-4.79,2.78-7.19.05-.13.1-.27.16-.41.42-1.07.83-2.14,1.25-3.22.37-.94.73-1.88,1.09-2.82.05-.13.1-.27.16-.41.88-2.26,1.75-4.52,2.62-6.78.92-2.4,1.85-4.79,2.78-7.19.05-.13.1-.27.16-.41.42-1.07.83-2.14,1.25-3.22.37-.94.73-1.88,1.09-2.82.05-.13.1-.27.16-.41.88-2.26,1.75-4.52,2.62-6.78.9-2.34,1.8-4.67,2.71-7.01.11-.27.21-.55.32-.82.15-.38.3-.76.44-1.14q.06-.16.12-.32c.49-1.27,1-2.53,1.51-3.8ZM310.31,27.53c-.04.14-.08.28-.12.43-.8,2.84-1.66,5.65-2.66,8.43-.49,1.36-.97,2.73-1.43,4.11-.04.12-.08.23-.12.35-1.07,3.15-2.12,6.31-3.17,9.47-.34,1.02-.68,2.04-1.02,3.07-.13.4-.27.8-.4,1.2-.48,1.46-.98,2.91-1.49,4.36-.04.12-.09.25-.13.37-.04.11-.08.22-.12.33q-.1.26-.08.53h21.76q-1.25-3.88-2.54-7.75c-.08-.24-.16-.47-.24-.71-.21-.62-.42-1.23-.63-1.85-.22-.65-.44-1.3-.66-1.95-.82-2.44-1.65-4.89-2.48-7.33-.04-.1-.07-.21-.11-.31-.33-.96-.65-1.93-.98-2.89-.61-1.81-1.22-3.62-1.83-5.43q-.08-.25-.17-.5c-.43-1.3-.85-2.6-1.26-3.91h-.13Z" fill="#0a0420"/>
      <path d="M408.48,10.48c2.15,0,4.3-.02,6.44-.02,1,0,2,0,2.99,0,.87,0,1.74,0,2.61,0,.46,0,.92,0,1.38,0,.51,0,1.03,0,1.54,0,.15,0,.3,0,.46,0,1.86,0,3.26.61,4.65,1.82,1.13,1.27,1.59,2.87,2.15,4.45.1.28.2.55.3.83.21.6.43,1.2.64,1.8.53,1.49,1.07,2.98,1.6,4.46.19.52.38,1.05.57,1.57.82,2.27,1.64,4.54,2.47,6.81.95,2.62,1.9,5.24,2.85,7.86.03.09.06.17.09.26.16.43.31.87.47,1.3.03.08.06.17.09.26.06.17.12.34.18.51.55,1.53,1.11,3.06,1.66,4.59.14.38.28.77.42,1.15.42,1.16.84,2.32,1.26,3.48,1.22,3.35,2.43,6.7,3.59,10.07.03.09.06.18.09.27.92,2.66,1.72,5.34,2.46,8.06.08-.29.16-.59.24-.88.02-.09.05-.18.07-.28.17-.62.33-1.24.49-1.85.74-2.8,1.61-5.54,2.56-8.27.08-.23.16-.47.24-.7.96-2.77,1.93-5.54,2.93-8.29.04-.1.07-.2.11-.31.04-.1.08-.21.11-.31.52-1.44,1.04-2.88,1.56-4.33.93-2.61,1.87-5.21,2.8-7.82.92-2.57,1.85-5.13,2.77-7.7.31-.86.62-1.72.93-2.58.3-.83.6-1.67.9-2.5.31-.87.62-1.74.94-2.61.17-.47.34-.94.5-1.41.61-1.7,1.22-3.4,1.85-5.09.04-.11.08-.22.12-.34.34-.9.77-1.64,1.43-2.35q.12-.13.24-.27c.99-.97,2.42-1.63,3.81-1.63.14,0,.28,0,.43,0,.15,0,.31,0,.47,0,.16,0,.32,0,.49,0,.45,0,.89,0,1.33,0,.47,0,.93,0,1.4,0,.88,0,1.76,0,2.64,0,1,0,2.01,0,3.01,0,2.06,0,4.13,0,6.19,0-.08.44-.19.84-.35,1.26q-.07.17-.14.34c-.05.12-.1.24-.15.37-.05.13-.1.26-.16.39-.17.43-.35.87-.52,1.3-.12.31-.24.61-.37.92-.26.65-.52,1.3-.78,1.95-.32.81-.65,1.62-.97,2.43-1.58,3.98-3.18,7.95-4.79,11.92-1.08,2.66-2.15,5.32-3.22,7.99-.06.15-.12.3-.18.45-1.97,4.9-3.93,9.8-5.88,14.7-1.98,4.98-3.97,9.96-5.98,14.93-1.21,3-2.41,6-3.62,8.99-.31.78-.63,1.56-.94,2.34-.24.59-.48,1.18-.71,1.78-.11.29-.23.57-.34.86-.57,1.43-1.15,2.85-1.71,4.28-.09.22-.18.45-.27.67-.16.41-.32.82-.49,1.23-.07.18-.14.36-.21.53-.06.15-.12.31-.18.46q-.14.34-.28.47c-.22.01-.44.02-.66.02-.14,0-.29,0-.44,0-.16,0-.32,0-.48,0h-.5c-.46,0-.91,0-1.37,0-.48,0-.95,0-1.43,0-.91,0-1.81,0-2.72,0-1.03,0-2.06,0-3.09,0-2.12,0-4.24,0-6.36,0-.43-.92-.83-1.85-1.21-2.8-.05-.12-.1-.25-.15-.38-.16-.41-.32-.82-.49-1.23-.12-.29-.23-.59-.35-.88-.25-.62-.5-1.25-.74-1.87-.62-1.57-1.25-3.15-1.88-4.72-.1-.25-.2-.5-.3-.76-1.13-2.85-2.27-5.7-3.42-8.54-.13-.33-.26-.65-.39-.98-.36-.89-.72-1.79-1.08-2.68-1.23-3.04-2.45-6.08-3.67-9.13-.06-.15-.12-.3-.18-.45-2.15-5.34-4.28-10.69-6.41-16.04-1.29-3.24-2.58-6.47-3.89-9.7-.05-.13-.11-.26-.16-.39-.05-.13-.11-.26-.16-.4-1.03-2.54-2.05-5.09-3.08-7.64-.25-.63-.5-1.26-.76-1.88q-2.42-6.01-3.35-8.38c-.06-.15-.12-.3-.18-.46-.05-.13-.1-.26-.16-.4-.04-.11-.09-.22-.13-.34q-.09-.26-.09-.53Z" fill="#0a0420"/>
      <path d="M206.59,10.36c.1,0,.2,0,.3,0,.33,0,.66,0,.99,0,.24,0,.48,0,.72,0,.66,0,1.32,0,1.98,0,.71,0,1.42,0,2.13,0,1.39,0,2.79,0,4.18,0,1.13,0,2.26,0,3.4,0q.24,0,.49,0c.33,0,.66,0,.98,0,3.07,0,6.14,0,9.21,0,2.81,0,5.62,0,8.43,0,2.88,0,5.77,0,8.65,0,1.62,0,3.24,0,4.86,0,1.38,0,2.76,0,4.14,0,.7,0,1.41,0,2.11,0,.64,0,1.29,0,1.93,0,.23,0,.46,0,.7,0,1.61,0,3.14.07,4.35,1.26.79.94,1.08,1.9,1.23,3.09.02.12.03.24.05.36.06.42.11.84.17,1.27q.03.25.06.5c.16,1.22.31,2.44.46,3.66.05.4.1.79.15,1.19.05.38.1.77.14,1.15.02.18.05.37.07.55.03.25.06.51.09.76.02.14.04.29.06.43q.04.36.04.76h-24.44v65.67h-18.94V25.32h-24.58c0-.74.03-1.42.13-2.15q.02-.15.04-.31c.04-.33.09-.67.14-1,.03-.23.06-.47.1-.7.07-.49.13-.98.2-1.46.09-.62.17-1.25.25-1.87.06-.48.13-.96.2-1.45.03-.23.06-.46.09-.69q.3-2.28.87-3.27c.08-.14.15-.28.23-.43.91-1.1,2.23-1.64,3.63-1.64Z" fill="#0a0420"/>
      <path d="M370.34,10.48c1.9-.01,3.8-.02,5.7-.03.88,0,1.76,0,2.65-.01.85,0,1.71,0,2.56-.01.32,0,.65,0,.97,0,.46,0,.91,0,1.37,0,.13,0,.27,0,.4,0,1.55,0,2.8.55,3.9,1.63,1.11,1.21,1.43,2.58,1.42,4.19v.39c0,.44,0,.87,0,1.31,0,.31,0,.63,0,.95,0,.77,0,1.55,0,2.32,0,.93,0,1.86,0,2.79,0,1.71,0,3.43,0,5.14,0,1.7,0,3.39,0,5.09v1.93c0,3.79,0,7.59,0,11.38,0,3.69,0,7.37,0,11.06v.34c0,1.14,0,2.28,0,3.42,0,2.32,0,4.65,0,6.97v.32c0,7.14,0,14.27-.01,21.41-1.92.01-3.84.02-5.75.03-.89,0-1.78,0-2.67.01-.86,0-1.72,0-2.58.01-.33,0-.66,0-.98,0-.46,0-.92,0-1.38,0-.13,0-.27,0-.41,0-1.48,0-2.75-.5-3.82-1.54-1.47-1.73-1.42-3.61-1.41-5.76,0-.32,0-.63,0-.95,0-.78,0-1.55,0-2.33,0-.93,0-1.86,0-2.79,0-1.72,0-3.44,0-5.16,0-1.7,0-3.4,0-5.1v-.32c0-.54,0-1.08,0-1.61,0-3.81,0-7.61,0-11.42,0-3.7,0-7.39.01-11.09v-.35c0-1.14,0-2.29,0-3.43,0-2.33,0-4.66,0-6.99v-.32c0-7.16.01-14.31.02-21.47Z" fill="#0a0420"/>
      <g>
        <path d="M165.49,0H19.28l44.05,25.9,97.62,58.14c2,1.19,4.58-.2,4.58-2.47V0h-.04Z" fill="#6f3fee"/>
        <path d="M4.55,2.36c-.4-.24-.82-.37-1.24-.41-.03,0-.05,0-.08,0-.02,0-.05,0-.07,0-.05,0-.1,0-.15,0-.01,0-.03,0-.04,0-.05,0-.09,0-.14,0-.04,0-.07,0-.11,0-.01,0-.03,0-.04,0-1.44.14-2.69,1.29-2.69,2.87v78.05h0v3.78l30.49-.2,49.67-.03h65.7l-44.35-26.29L4.55,2.36Z" fill="#6f3fee"/>
        <path d="M114.88,94.01H49.63c-.56,0-1.01.42-1.07.96h0s0,.11,0,.11c0,0,0,0,0,0v6.31h67.39v-6.31c0-.59-.48-1.07-1.07-1.07Z" fill="#6f3fee"/>
      </g>
    </g>
  </g>
</svg>