<svg id="Layer_1" data-name="Layer 1" xmlns="http://www.w3.org/2000/svg" viewBox="0 0 675.17 547.98"><defs><style>.cls-1,.cls-4,.cls-5{fill:#39b6ef;}.cls-2,.cls-3{fill:#4f4eb9;}.cls-3,.cls-5{opacity:0.71;}.cls-4{opacity:0.55;}.cls-6{fill:#0071bc;}</style></defs><title>TaivLogo</title><path class="cls-1" d="M0,14.5V350.93H591.9L17.28,10.25C10.91,6.47,0,9.15,0,14.5Z"/><path class="cls-2" d="M83.28,0,657.05,342.29c6.69,4,18.12,1.16,18.12-4.48V0Z"/><path class="cls-3" d="M0,14.5V350.93H500.23L14.61,10.25C9.22,6.47,0,9.15,0,14.5Z"/><path class="cls-4" d="M83.28,0,657.05,268.76c6.69,3.13,18.12.92,18.12-3.51V0Z"/><path class="cls-3" d="M76,70,0,350.93H500.23L90.58,65.76C85.19,62,76,64.66,76,70Z"/><path class="cls-4" d="M83.28,0,565.82,225.5c6.69,3.14,18.12.92,18.12-3.51L675.17,0Z"/><path class="cls-2" d="M222.82,384.17h257a8.5,8.5,0,0,1,8.5,8.5V414a0,0,0,0,1,0,0h-274a0,0,0,0,1,0,0V392.67A8.5,8.5,0,0,1,222.82,384.17Z"/><polygon class="cls-5" points="214.32 395.62 214.32 413.99 488.36 413.99 214.32 395.62"/><path class="cls-6" d="M357.8,549.05H344.19a6.23,6.23,0,0,1-3.77-1.07,5.47,5.47,0,0,1-2.05-2.73l-4.47-13.2H305.1l-4.47,13.2a5.79,5.79,0,0,1-2,2.63,5.86,5.86,0,0,1-3.69,1.17H281.2l29.31-75.73h18ZM309.16,520.1h20.68l-7-20.73-1.59-4.66q-.9-2.67-1.79-5.79c-.56,2.11-1.12,4.07-1.72,5.87s-1.14,3.36-1.66,4.68Z"/><path class="cls-1" d="M393.56,549.05H380.69a4.8,4.8,0,0,1-4.8-4.81V473.32h12.86a4.81,4.81,0,0,1,4.81,4.81Z"/><path class="cls-2" d="M411.75,473.32h14.14a6.31,6.31,0,0,1,3.74,1,5.79,5.79,0,0,1,2.08,2.76l14.66,40.54c.65,1.76,1.32,3.69,2,5.77s1.3,4.26,1.9,6.55q.72-3.43,1.68-6.55c.65-2.08,1.28-4,1.9-5.77l14.55-40.54a6.06,6.06,0,0,1,5.72-3.8h14.24L458,549.05H442.1Z"/><path class="cls-2" d="M278.84,476.8l1.29,10.45h-23v61.8H239.53v-61.8H216.32l1.44-10.5a4,4,0,0,1,3.92-3.43h53.23A4,4,0,0,1,278.84,476.8Z"/></svg>
