<?xml version="1.0" encoding="UTF-8"?>
<svg id="Layer_2" data-name="Layer 2" xmlns="http://www.w3.org/2000/svg" width="248.08" height="151.96" viewBox="0 0 248.08 151.96">
  <g id="Layer_1-2" data-name="Layer 1">
    <g>
      <path d="M248.02,0H28.9l66.01,38.81,146.3,87.13c3,1.79,6.87-.3,6.87-3.71V0h-.06Z" fill="#6f3fee"/>
      <path d="M6.82,3.54c-.6-.36-1.23-.55-1.86-.62-.04,0-.08,0-.12-.01-.03,0-.07,0-.1,0-.07,0-.15,0-.22,0-.02,0-.04,0-.06,0-.07,0-.14,0-.21,0-.06,0-.11,0-.17.01-.02,0-.04,0-.06,0C1.88,3.13,0,4.86,0,7.23v116.96h0v5.66l45.7-.3,74.43-.04h98.46l-66.46-39.4L6.82,3.54Z" fill="#6f3fee"/>
      <path d="M172.16,140.89h-97.78c-.83,0-1.52.63-1.6,1.44h0s0,.16,0,.16c0,0,0,0,0,0v9.46h101v-9.46c0-.89-.72-1.61-1.61-1.61Z" fill="#6f3fee"/>
    </g>
  </g>
</svg>