<?xml version="1.0" encoding="UTF-8"?>
<svg id="Layer_2" data-name="Layer 2" xmlns="http://www.w3.org/2000/svg" viewBox="0 0 482.35 295.46">
  <defs>
    <style>
      .cls-1 {
        fill: #f5f7fa;
      }
    </style>
  </defs>
  <g id="Layer_1-2" data-name="Layer 1">
    <g>
      <path class="cls-1" d="M482.23,0H56.18l128.35,75.46,284.46,169.42c5.83,3.47,13.35-.58,13.35-7.21V0h-.11Z"/>
      <path class="cls-1" d="M13.26,6.89c-1.16-.69-2.39-1.08-3.61-1.21-.08,0-.16-.02-.24-.02-.07,0-.13,0-.2-.01-.14,0-.28-.01-.42-.02-.04,0-.07,0-.11,0-.13,0-.27,0-.4.01-.11,0-.22.01-.33.02-.04,0-.07,0-.11.01C3.66,6.09,0,9.45,0,14.05v227.42h0v11.01l88.85-.57,144.72-.08h191.45l-129.22-76.6L13.26,6.89Z"/>
      <path class="cls-1" d="M334.74,273.93h-190.11c-1.62,0-2.95,1.23-3.11,2.81h-.02s0,.31,0,.31c0,0,0,0,0,.01v18.39h196.37v-18.39c0-1.73-1.4-3.13-3.13-3.13Z"/>
    </g>
  </g>
</svg>